<?xml version="1.0" encoding="UTF-8" standalone="no"?>
<!DOCTYPE svg PUBLIC "-//W3C//DTD SVG 1.1//EN"
 "http://www.w3.org/Graphics/SVG/1.1/DTD/svg11.dtd">
<!-- Generated by graphviz version 5.0.1 (20220820.1526)
 -->
<!-- Pages: 1 -->
<svg width="1887pt" height="476pt"
 viewBox="0.00 0.00 1887.04 476.00" xmlns="http://www.w3.org/2000/svg" xmlns:xlink="http://www.w3.org/1999/xlink">
<g id="graph0" class="graph" transform="scale(1 1) rotate(0) translate(4 472)">
<polygon fill="white" stroke="none" points="-4,4 -4,-472 1883.04,-472 1883.04,4 -4,4"/>
<!-- [root] data.archive_file.mad_libs (expand) -->
<g id="node1" class="node">
<title>[root] data.archive_file.mad_libs (expand)</title>
<polygon fill="none" stroke="black" points="874.04,-324 712.04,-324 712.04,-288 874.04,-288 874.04,-324"/>
<text text-anchor="middle" x="793.04" y="-302.3" font-family="Times New Roman,serif" font-size="14.00">data.archive_file.mad_libs</text>
</g>
<!-- [root] local_file.mad_libs (expand) -->
<g id="node2" class="node">
<title>[root] local_file.mad_libs (expand)</title>
<polygon fill="none" stroke="black" points="1188.04,-252 1066.04,-252 1066.04,-216 1188.04,-216 1188.04,-252"/>
<text text-anchor="middle" x="1127.04" y="-230.3" font-family="Times New Roman,serif" font-size="14.00">local_file.mad_libs</text>
</g>
<!-- [root] data.archive_file.mad_libs (expand)&#45;&gt;[root] local_file.mad_libs (expand) -->
<g id="edge1" class="edge">
<title>[root] data.archive_file.mad_libs (expand)&#45;&gt;[root] local_file.mad_libs (expand)</title>
<path fill="none" stroke="black" d="M874.1,-289.6C923.97,-279.92 989.41,-266.85 1056.14,-252.16"/>
<polygon fill="black" stroke="black" points="1056.98,-255.56 1065.99,-249.98 1055.47,-248.72 1056.98,-255.56"/>
</g>
<!-- [root] provider[&quot;registry.terraform.io/hashicorp/archive&quot;] -->
<g id="node4" class="node">
<title>[root] provider[&quot;registry.terraform.io/hashicorp/archive&quot;]</title>
<polygon fill="none" stroke="black" points="774.04,-252 500.22,-234 774.04,-216 1047.86,-234 774.04,-252"/>
<text text-anchor="middle" x="774.04" y="-230.3" font-family="Times New Roman,serif" font-size="14.00">provider[&quot;registry.terraform.io/hashicorp/archive&quot;]</text>
</g>
<!-- [root] data.archive_file.mad_libs (expand)&#45;&gt;[root] provider[&quot;registry.terraform.io/hashicorp/archive&quot;] -->
<g id="edge2" class="edge">
<title>[root] data.archive_file.mad_libs (expand)&#45;&gt;[root] provider[&quot;registry.terraform.io/hashicorp/archive&quot;]</title>
<path fill="none" stroke="black" d="M788.34,-287.7C786.23,-279.9 783.68,-270.51 781.32,-261.83"/>
<polygon fill="black" stroke="black" points="784.68,-260.84 778.68,-252.1 777.93,-262.67 784.68,-260.84"/>
</g>
<!-- [root] provider[&quot;registry.terraform.io/hashicorp/local&quot;] -->
<g id="node5" class="node">
<title>[root] provider[&quot;registry.terraform.io/hashicorp/local&quot;]</title>
<polygon fill="none" stroke="black" points="261.04,-180 -0.04,-162 261.04,-144 522.12,-162 261.04,-180"/>
<text text-anchor="middle" x="261.04" y="-158.3" font-family="Times New Roman,serif" font-size="14.00">provider[&quot;registry.terraform.io/hashicorp/local&quot;]</text>
</g>
<!-- [root] local_file.mad_libs (expand)&#45;&gt;[root] provider[&quot;registry.terraform.io/hashicorp/local&quot;] -->
<g id="edge5" class="edge">
<title>[root] local_file.mad_libs (expand)&#45;&gt;[root] provider[&quot;registry.terraform.io/hashicorp/local&quot;]</title>
<path fill="none" stroke="black" d="M1065.7,-217.47C1062.78,-216.93 1059.88,-216.44 1057.04,-216 1041.02,-213.54 622.58,-186.32 398.98,-171.88"/>
<polygon fill="black" stroke="black" points="399.01,-168.38 388.81,-171.23 398.56,-175.36 399.01,-168.38"/>
</g>
<!-- [root] random_shuffle.random_adjectives (expand) -->
<g id="node7" class="node">
<title>[root] random_shuffle.random_adjectives (expand)</title>
<polygon fill="none" stroke="black" points="1668.54,-180 1455.54,-180 1455.54,-144 1668.54,-144 1668.54,-180"/>
<text text-anchor="middle" x="1562.04" y="-158.3" font-family="Times New Roman,serif" font-size="14.00">random_shuffle.random_adjectives</text>
</g>
<!-- [root] local_file.mad_libs (expand)&#45;&gt;[root] random_shuffle.random_adjectives (expand) -->
<g id="edge6" class="edge">
<title>[root] local_file.mad_libs (expand)&#45;&gt;[root] random_shuffle.random_adjectives (expand)</title>
<path fill="none" stroke="black" d="M1188.18,-221.3C1198.15,-219.47 1208.38,-217.65 1218.04,-216 1260.69,-208.73 1363.24,-193.02 1445.34,-180.57"/>
<polygon fill="black" stroke="black" points="1445.88,-184.03 1455.25,-179.07 1444.84,-177.11 1445.88,-184.03"/>
</g>
<!-- [root] random_shuffle.random_adverbs (expand) -->
<g id="node8" class="node">
<title>[root] random_shuffle.random_adverbs (expand)</title>
<polygon fill="none" stroke="black" points="1005.54,-180 802.54,-180 802.54,-144 1005.54,-144 1005.54,-180"/>
<text text-anchor="middle" x="904.04" y="-158.3" font-family="Times New Roman,serif" font-size="14.00">random_shuffle.random_adverbs</text>
</g>
<!-- [root] local_file.mad_libs (expand)&#45;&gt;[root] random_shuffle.random_adverbs (expand) -->
<g id="edge7" class="edge">
<title>[root] local_file.mad_libs (expand)&#45;&gt;[root] random_shuffle.random_adverbs (expand)</title>
<path fill="none" stroke="black" d="M1072.77,-215.97C1041.21,-206.06 1001.25,-193.51 968.14,-183.12"/>
<polygon fill="black" stroke="black" points="969.14,-179.77 958.55,-180.11 967.04,-186.45 969.14,-179.77"/>
</g>
<!-- [root] random_shuffle.random_nouns (expand) -->
<g id="node9" class="node">
<title>[root] random_shuffle.random_nouns (expand)</title>
<polygon fill="none" stroke="black" points="1879.04,-180 1687.04,-180 1687.04,-144 1879.04,-144 1879.04,-180"/>
<text text-anchor="middle" x="1783.04" y="-158.3" font-family="Times New Roman,serif" font-size="14.00">random_shuffle.random_nouns</text>
</g>
<!-- [root] local_file.mad_libs (expand)&#45;&gt;[root] random_shuffle.random_nouns (expand) -->
<g id="edge8" class="edge">
<title>[root] local_file.mad_libs (expand)&#45;&gt;[root] random_shuffle.random_nouns (expand)</title>
<path fill="none" stroke="black" d="M1188.08,-220.67C1198.07,-218.92 1208.32,-217.28 1218.04,-216 1418.07,-189.57 1472.68,-203.93 1676.8,-180.08"/>
<polygon fill="black" stroke="black" points="1677.44,-183.53 1686.96,-178.88 1676.61,-176.58 1677.44,-183.53"/>
</g>
<!-- [root] random_shuffle.random_numbers (expand) -->
<g id="node10" class="node">
<title>[root] random_shuffle.random_numbers (expand)</title>
<polygon fill="none" stroke="black" points="1230.04,-180 1024.04,-180 1024.04,-144 1230.04,-144 1230.04,-180"/>
<text text-anchor="middle" x="1127.04" y="-158.3" font-family="Times New Roman,serif" font-size="14.00">random_shuffle.random_numbers</text>
</g>
<!-- [root] local_file.mad_libs (expand)&#45;&gt;[root] random_shuffle.random_numbers (expand) -->
<g id="edge9" class="edge">
<title>[root] local_file.mad_libs (expand)&#45;&gt;[root] random_shuffle.random_numbers (expand)</title>
<path fill="none" stroke="black" d="M1127.04,-215.7C1127.04,-207.98 1127.04,-198.71 1127.04,-190.11"/>
<polygon fill="black" stroke="black" points="1130.54,-190.1 1127.04,-180.1 1123.54,-190.1 1130.54,-190.1"/>
</g>
<!-- [root] random_shuffle.random_verbs (expand) -->
<g id="node11" class="node">
<title>[root] random_shuffle.random_verbs (expand)</title>
<polygon fill="none" stroke="black" points="1437.54,-180 1248.54,-180 1248.54,-144 1437.54,-144 1437.54,-180"/>
<text text-anchor="middle" x="1343.04" y="-158.3" font-family="Times New Roman,serif" font-size="14.00">random_shuffle.random_verbs</text>
</g>
<!-- [root] local_file.mad_libs (expand)&#45;&gt;[root] random_shuffle.random_verbs (expand) -->
<g id="edge10" class="edge">
<title>[root] local_file.mad_libs (expand)&#45;&gt;[root] random_shuffle.random_verbs (expand)</title>
<path fill="none" stroke="black" d="M1179.6,-215.97C1210.05,-206.1 1248.55,-193.62 1280.54,-183.25"/>
<polygon fill="black" stroke="black" points="1281.81,-186.52 1290.24,-180.11 1279.65,-179.86 1281.81,-186.52"/>
</g>
<!-- [root] local.templates (expand) -->
<g id="node15" class="node">
<title>[root] local.templates (expand)</title>
<ellipse fill="none" stroke="black" cx="662.04" cy="-162" rx="122.38" ry="18"/>
<text text-anchor="middle" x="662.04" y="-158.3" font-family="Times New Roman,serif" font-size="14.00">[root] local.templates (expand)</text>
</g>
<!-- [root] local_file.mad_libs (expand)&#45;&gt;[root] local.templates (expand) -->
<g id="edge4" class="edge">
<title>[root] local_file.mad_libs (expand)&#45;&gt;[root] local.templates (expand)</title>
<path fill="none" stroke="black" d="M1066.04,-217.79C1063,-217.15 1059.99,-216.55 1057.04,-216 1042.56,-213.28 872.43,-190.71 760.22,-175.91"/>
<polygon fill="black" stroke="black" points="760.6,-172.43 750.23,-174.59 759.68,-179.37 760.6,-172.43"/>
</g>
<!-- [root] output.name -->
<g id="node3" class="node">
<title>[root] output.name</title>
<polygon fill="none" stroke="black" points="1460.04,-324 1380.04,-324 1380.04,-288 1466.04,-288 1466.04,-318 1460.04,-324"/>
<polyline fill="none" stroke="black" points="1460.04,-324 1460.04,-318"/>
<polyline fill="none" stroke="black" points="1466.04,-318 1460.04,-318"/>
<text text-anchor="middle" x="1423.04" y="-302.3" font-family="Times New Roman,serif" font-size="14.00">output.name</text>
</g>
<!-- [root] output.name&#45;&gt;[root] random_shuffle.random_nouns (expand) -->
<g id="edge13" class="edge">
<title>[root] output.name&#45;&gt;[root] random_shuffle.random_nouns (expand)</title>
<path fill="none" stroke="black" d="M1466.13,-301.86C1539.78,-295.78 1685.97,-280.45 1728.04,-252 1750.15,-237.05 1765,-209.93 1773.64,-189.55"/>
<polygon fill="black" stroke="black" points="1776.93,-190.75 1777.39,-180.16 1770.43,-188.15 1776.93,-190.75"/>
</g>
<!-- [root] provider[&quot;registry.terraform.io/hashicorp/random&quot;] -->
<g id="node6" class="node">
<title>[root] provider[&quot;registry.terraform.io/hashicorp/random&quot;]</title>
<polygon fill="none" stroke="black" points="1004.04,-108 727.21,-90 1004.04,-72 1280.87,-90 1004.04,-108"/>
<text text-anchor="middle" x="1004.04" y="-86.3" font-family="Times New Roman,serif" font-size="14.00">provider[&quot;registry.terraform.io/hashicorp/random&quot;]</text>
</g>
<!-- [root] random_shuffle.random_adjectives (expand)&#45;&gt;[root] provider[&quot;registry.terraform.io/hashicorp/random&quot;] -->
<g id="edge22" class="edge">
<title>[root] random_shuffle.random_adjectives (expand)&#45;&gt;[root] provider[&quot;registry.terraform.io/hashicorp/random&quot;]</title>
<path fill="none" stroke="black" d="M1455.24,-145.11C1452.48,-144.73 1449.74,-144.36 1447.04,-144 1332.27,-128.65 1200.48,-113.16 1110.68,-102.92"/>
<polygon fill="black" stroke="black" points="1110.82,-99.41 1100.49,-101.76 1110.03,-106.37 1110.82,-99.41"/>
</g>
<!-- [root] var.num_files -->
<g id="node12" class="node">
<title>[root] var.num_files</title>
<polygon fill="none" stroke="black" points="1385.04,-108 1299.04,-108 1299.04,-72 1391.04,-72 1391.04,-102 1385.04,-108"/>
<polyline fill="none" stroke="black" points="1385.04,-108 1385.04,-102"/>
<polyline fill="none" stroke="black" points="1391.04,-102 1385.04,-102"/>
<text text-anchor="middle" x="1345.04" y="-86.3" font-family="Times New Roman,serif" font-size="14.00">var.num_files</text>
</g>
<!-- [root] random_shuffle.random_adjectives (expand)&#45;&gt;[root] var.num_files -->
<g id="edge23" class="edge">
<title>[root] random_shuffle.random_adjectives (expand)&#45;&gt;[root] var.num_files</title>
<path fill="none" stroke="black" d="M1509.23,-143.97C1476.35,-133.36 1434.1,-119.73 1400.69,-108.95"/>
<polygon fill="black" stroke="black" points="1401.67,-105.59 1391.08,-105.85 1399.52,-112.25 1401.67,-105.59"/>
</g>
<!-- [root] local.uppercase_words (expand) -->
<g id="node14" class="node">
<title>[root] local.uppercase_words (expand)</title>
<ellipse fill="none" stroke="black" cx="1562.04" cy="-90" rx="153.27" ry="18"/>
<text text-anchor="middle" x="1562.04" y="-86.3" font-family="Times New Roman,serif" font-size="14.00">[root] local.uppercase_words (expand)</text>
</g>
<!-- [root] random_shuffle.random_adjectives (expand)&#45;&gt;[root] local.uppercase_words (expand) -->
<g id="edge21" class="edge">
<title>[root] random_shuffle.random_adjectives (expand)&#45;&gt;[root] local.uppercase_words (expand)</title>
<path fill="none" stroke="black" d="M1562.04,-143.7C1562.04,-135.98 1562.04,-126.71 1562.04,-118.11"/>
<polygon fill="black" stroke="black" points="1565.54,-118.1 1562.04,-108.1 1558.54,-118.1 1565.54,-118.1"/>
</g>
<!-- [root] random_shuffle.random_adverbs (expand)&#45;&gt;[root] provider[&quot;registry.terraform.io/hashicorp/random&quot;] -->
<g id="edge25" class="edge">
<title>[root] random_shuffle.random_adverbs (expand)&#45;&gt;[root] provider[&quot;registry.terraform.io/hashicorp/random&quot;]</title>
<path fill="none" stroke="black" d="M928.5,-143.88C941.91,-134.49 958.67,-122.76 972.99,-112.74"/>
<polygon fill="black" stroke="black" points="975.36,-115.35 981.54,-106.75 971.34,-109.62 975.36,-115.35"/>
</g>
<!-- [root] random_shuffle.random_adverbs (expand)&#45;&gt;[root] var.num_files -->
<g id="edge26" class="edge">
<title>[root] random_shuffle.random_adverbs (expand)&#45;&gt;[root] var.num_files</title>
<path fill="none" stroke="black" d="M1005.65,-145.35C1008.82,-144.89 1011.95,-144.44 1015.04,-144 1133.86,-127.13 1167.84,-133.91 1288.94,-108.03"/>
<polygon fill="black" stroke="black" points="1289.95,-111.4 1298.98,-105.86 1288.46,-104.56 1289.95,-111.4"/>
</g>
<!-- [root] random_shuffle.random_adverbs (expand)&#45;&gt;[root] local.uppercase_words (expand) -->
<g id="edge24" class="edge">
<title>[root] random_shuffle.random_adverbs (expand)&#45;&gt;[root] local.uppercase_words (expand)</title>
<path fill="none" stroke="black" d="M1005.63,-145.2C1008.8,-144.78 1011.94,-144.38 1015.04,-144 1185.61,-122.98 1229.02,-124.97 1400.04,-108 1413.74,-106.64 1428.09,-105.18 1442.34,-103.72"/>
<polygon fill="black" stroke="black" points="1443.11,-107.15 1452.7,-102.64 1442.39,-100.19 1443.11,-107.15"/>
</g>
<!-- [root] random_shuffle.random_nouns (expand)&#45;&gt;[root] provider[&quot;registry.terraform.io/hashicorp/random&quot;] -->
<g id="edge28" class="edge">
<title>[root] random_shuffle.random_nouns (expand)&#45;&gt;[root] provider[&quot;registry.terraform.io/hashicorp/random&quot;]</title>
<path fill="none" stroke="black" d="M1686.95,-145.12C1683.95,-144.73 1680.97,-144.35 1678.04,-144 1499.4,-122.55 1293.04,-107.79 1156.2,-99.39"/>
<polygon fill="black" stroke="black" points="1156.25,-95.89 1146.06,-98.77 1155.83,-102.87 1156.25,-95.89"/>
</g>
<!-- [root] random_shuffle.random_nouns (expand)&#45;&gt;[root] var.num_files -->
<g id="edge29" class="edge">
<title>[root] random_shuffle.random_nouns (expand)&#45;&gt;[root] var.num_files</title>
<path fill="none" stroke="black" d="M1686.93,-145.31C1683.93,-144.86 1680.96,-144.43 1678.04,-144 1558.01,-126.52 1523.58,-134.07 1401.24,-108.05"/>
<polygon fill="black" stroke="black" points="1401.62,-104.55 1391.1,-105.86 1400.14,-111.4 1401.62,-104.55"/>
</g>
<!-- [root] random_shuffle.random_nouns (expand)&#45;&gt;[root] local.uppercase_words (expand) -->
<g id="edge27" class="edge">
<title>[root] random_shuffle.random_nouns (expand)&#45;&gt;[root] local.uppercase_words (expand)</title>
<path fill="none" stroke="black" d="M1729.26,-143.97C1696.93,-133.73 1655.72,-120.67 1622.3,-110.09"/>
<polygon fill="black" stroke="black" points="1623.23,-106.71 1612.64,-107.03 1621.12,-113.38 1623.23,-106.71"/>
</g>
<!-- [root] random_shuffle.random_numbers (expand)&#45;&gt;[root] provider[&quot;registry.terraform.io/hashicorp/random&quot;] -->
<g id="edge31" class="edge">
<title>[root] random_shuffle.random_numbers (expand)&#45;&gt;[root] provider[&quot;registry.terraform.io/hashicorp/random&quot;]</title>
<path fill="none" stroke="black" d="M1096.95,-143.88C1079.75,-134.09 1058.07,-121.75 1039.98,-111.45"/>
<polygon fill="black" stroke="black" points="1041.31,-108.18 1030.89,-106.28 1037.85,-114.27 1041.31,-108.18"/>
</g>
<!-- [root] random_shuffle.random_numbers (expand)&#45;&gt;[root] var.num_files -->
<g id="edge32" class="edge">
<title>[root] random_shuffle.random_numbers (expand)&#45;&gt;[root] var.num_files</title>
<path fill="none" stroke="black" d="M1180.09,-143.97C1213.13,-133.36 1255.57,-119.73 1289.13,-108.95"/>
<polygon fill="black" stroke="black" points="1290.34,-112.24 1298.79,-105.85 1288.2,-105.58 1290.34,-112.24"/>
</g>
<!-- [root] random_shuffle.random_numbers (expand)&#45;&gt;[root] local.uppercase_words (expand) -->
<g id="edge30" class="edge">
<title>[root] random_shuffle.random_numbers (expand)&#45;&gt;[root] local.uppercase_words (expand)</title>
<path fill="none" stroke="black" d="M1230.13,-144.41C1301.37,-132.95 1395.5,-117.8 1465.32,-106.56"/>
<polygon fill="black" stroke="black" points="1466.13,-109.98 1475.44,-104.94 1465.01,-103.07 1466.13,-109.98"/>
</g>
<!-- [root] random_shuffle.random_verbs (expand)&#45;&gt;[root] provider[&quot;registry.terraform.io/hashicorp/random&quot;] -->
<g id="edge34" class="edge">
<title>[root] random_shuffle.random_verbs (expand)&#45;&gt;[root] provider[&quot;registry.terraform.io/hashicorp/random&quot;]</title>
<path fill="none" stroke="black" d="M1260.55,-143.97C1204.36,-132.36 1130.69,-117.15 1076.72,-106.01"/>
<polygon fill="black" stroke="black" points="1077.38,-102.57 1066.88,-103.98 1075.96,-109.43 1077.38,-102.57"/>
</g>
<!-- [root] random_shuffle.random_verbs (expand)&#45;&gt;[root] var.num_files -->
<g id="edge35" class="edge">
<title>[root] random_shuffle.random_verbs (expand)&#45;&gt;[root] var.num_files</title>
<path fill="none" stroke="black" d="M1343.54,-143.7C1343.76,-135.98 1344.02,-126.71 1344.27,-118.11"/>
<polygon fill="black" stroke="black" points="1347.76,-118.2 1344.55,-108.1 1340.77,-118 1347.76,-118.2"/>
</g>
<!-- [root] random_shuffle.random_verbs (expand)&#45;&gt;[root] local.uppercase_words (expand) -->
<g id="edge33" class="edge">
<title>[root] random_shuffle.random_verbs (expand)&#45;&gt;[root] local.uppercase_words (expand)</title>
<path fill="none" stroke="black" d="M1396.33,-143.97C1428.37,-133.73 1469.21,-120.67 1502.33,-110.09"/>
<polygon fill="black" stroke="black" points="1503.44,-113.41 1511.9,-107.03 1501.31,-106.74 1503.44,-113.41"/>
</g>
<!-- [root] var.words -->
<g id="node13" class="node">
<title>[root] var.words</title>
<polygon fill="none" stroke="black" points="1592.54,-36 1525.54,-36 1525.54,0 1598.54,0 1598.54,-30 1592.54,-36"/>
<polyline fill="none" stroke="black" points="1592.54,-36 1592.54,-30"/>
<polyline fill="none" stroke="black" points="1598.54,-30 1592.54,-30"/>
<text text-anchor="middle" x="1562.04" y="-14.3" font-family="Times New Roman,serif" font-size="14.00">var.words</text>
</g>
<!-- [root] local.uppercase_words (expand)&#45;&gt;[root] var.words -->
<g id="edge3" class="edge">
<title>[root] local.uppercase_words (expand)&#45;&gt;[root] var.words</title>
<path fill="none" stroke="black" d="M1562.04,-71.7C1562.04,-63.98 1562.04,-54.71 1562.04,-46.11"/>
<polygon fill="black" stroke="black" points="1565.54,-46.1 1562.04,-36.1 1558.54,-46.1 1565.54,-46.1"/>
</g>
<!-- [root] meta.count&#45;boundary (EachMode fixup) -->
<g id="node16" class="node">
<title>[root] meta.count&#45;boundary (EachMode fixup)</title>
<ellipse fill="none" stroke="black" cx="1236.04" cy="-378" rx="180.87" ry="18"/>
<text text-anchor="middle" x="1236.04" y="-374.3" font-family="Times New Roman,serif" font-size="14.00">[root] meta.count&#45;boundary (EachMode fixup)</text>
</g>
<!-- [root] meta.count&#45;boundary (EachMode fixup)&#45;&gt;[root] data.archive_file.mad_libs (expand) -->
<g id="edge11" class="edge">
<title>[root] meta.count&#45;boundary (EachMode fixup)&#45;&gt;[root] data.archive_file.mad_libs (expand)</title>
<path fill="none" stroke="black" d="M1135.84,-362.98C1067.58,-353.19 974.91,-339.43 884.34,-324.19"/>
<polygon fill="black" stroke="black" points="884.89,-320.73 874.45,-322.52 883.73,-327.64 884.89,-320.73"/>
</g>
<!-- [root] meta.count&#45;boundary (EachMode fixup)&#45;&gt;[root] output.name -->
<g id="edge12" class="edge">
<title>[root] meta.count&#45;boundary (EachMode fixup)&#45;&gt;[root] output.name</title>
<path fill="none" stroke="black" d="M1280.36,-360.41C1307.43,-350.28 1342.19,-337.26 1370.63,-326.62"/>
<polygon fill="black" stroke="black" points="1371.87,-329.89 1380.01,-323.11 1369.42,-323.34 1371.87,-329.89"/>
</g>
<!-- [root] provider[&quot;registry.terraform.io/hashicorp/archive&quot;] (close) -->
<g id="node17" class="node">
<title>[root] provider[&quot;registry.terraform.io/hashicorp/archive&quot;] (close)</title>
<ellipse fill="none" stroke="black" cx="793.04" cy="-378" rx="244.26" ry="18"/>
<text text-anchor="middle" x="793.04" y="-374.3" font-family="Times New Roman,serif" font-size="14.00">[root] provider[&quot;registry.terraform.io/hashicorp/archive&quot;] (close)</text>
</g>
<!-- [root] provider[&quot;registry.terraform.io/hashicorp/archive&quot;] (close)&#45;&gt;[root] data.archive_file.mad_libs (expand) -->
<g id="edge14" class="edge">
<title>[root] provider[&quot;registry.terraform.io/hashicorp/archive&quot;] (close)&#45;&gt;[root] data.archive_file.mad_libs (expand)</title>
<path fill="none" stroke="black" d="M793.04,-359.7C793.04,-351.98 793.04,-342.71 793.04,-334.11"/>
<polygon fill="black" stroke="black" points="796.54,-334.1 793.04,-324.1 789.54,-334.1 796.54,-334.1"/>
</g>
<!-- [root] provider[&quot;registry.terraform.io/hashicorp/local&quot;] (close) -->
<g id="node18" class="node">
<title>[root] provider[&quot;registry.terraform.io/hashicorp/local&quot;] (close)</title>
<ellipse fill="none" stroke="black" cx="1127.04" cy="-306" rx="235.06" ry="18"/>
<text text-anchor="middle" x="1127.04" y="-302.3" font-family="Times New Roman,serif" font-size="14.00">[root] provider[&quot;registry.terraform.io/hashicorp/local&quot;] (close)</text>
</g>
<!-- [root] provider[&quot;registry.terraform.io/hashicorp/local&quot;] (close)&#45;&gt;[root] local_file.mad_libs (expand) -->
<g id="edge15" class="edge">
<title>[root] provider[&quot;registry.terraform.io/hashicorp/local&quot;] (close)&#45;&gt;[root] local_file.mad_libs (expand)</title>
<path fill="none" stroke="black" d="M1127.04,-287.7C1127.04,-279.98 1127.04,-270.71 1127.04,-262.11"/>
<polygon fill="black" stroke="black" points="1130.54,-262.1 1127.04,-252.1 1123.54,-262.1 1130.54,-262.1"/>
</g>
<!-- [root] provider[&quot;registry.terraform.io/hashicorp/random&quot;] (close) -->
<g id="node19" class="node">
<title>[root] provider[&quot;registry.terraform.io/hashicorp/random&quot;] (close)</title>
<ellipse fill="none" stroke="black" cx="1473.04" cy="-234" rx="246.16" ry="18"/>
<text text-anchor="middle" x="1473.04" y="-230.3" font-family="Times New Roman,serif" font-size="14.00">[root] provider[&quot;registry.terraform.io/hashicorp/random&quot;] (close)</text>
</g>
<!-- [root] provider[&quot;registry.terraform.io/hashicorp/random&quot;] (close)&#45;&gt;[root] random_shuffle.random_adjectives (expand) -->
<g id="edge16" class="edge">
<title>[root] provider[&quot;registry.terraform.io/hashicorp/random&quot;] (close)&#45;&gt;[root] random_shuffle.random_adjectives (expand)</title>
<path fill="none" stroke="black" d="M1494.59,-216.05C1505.87,-207.18 1519.87,-196.17 1532.18,-186.48"/>
<polygon fill="black" stroke="black" points="1534.69,-188.96 1540.39,-180.03 1530.36,-183.46 1534.69,-188.96"/>
</g>
<!-- [root] provider[&quot;registry.terraform.io/hashicorp/random&quot;] (close)&#45;&gt;[root] random_shuffle.random_adverbs (expand) -->
<g id="edge17" class="edge">
<title>[root] provider[&quot;registry.terraform.io/hashicorp/random&quot;] (close)&#45;&gt;[root] random_shuffle.random_adverbs (expand)</title>
<path fill="none" stroke="black" d="M1339.61,-218.87C1250.74,-209.14 1131.12,-195.46 1015.72,-180.06"/>
<polygon fill="black" stroke="black" points="1016.02,-176.57 1005.64,-178.71 1015.09,-183.51 1016.02,-176.57"/>
</g>
<!-- [root] provider[&quot;registry.terraform.io/hashicorp/random&quot;] (close)&#45;&gt;[root] random_shuffle.random_nouns (expand) -->
<g id="edge18" class="edge">
<title>[root] provider[&quot;registry.terraform.io/hashicorp/random&quot;] (close)&#45;&gt;[root] random_shuffle.random_nouns (expand)</title>
<path fill="none" stroke="black" d="M1544.94,-216.76C1590.62,-206.45 1649.98,-193.05 1698,-182.2"/>
<polygon fill="black" stroke="black" points="1698.77,-185.62 1707.75,-180 1697.23,-178.79 1698.77,-185.62"/>
</g>
<!-- [root] provider[&quot;registry.terraform.io/hashicorp/random&quot;] (close)&#45;&gt;[root] random_shuffle.random_numbers (expand) -->
<g id="edge19" class="edge">
<title>[root] provider[&quot;registry.terraform.io/hashicorp/random&quot;] (close)&#45;&gt;[root] random_shuffle.random_numbers (expand)</title>
<path fill="none" stroke="black" d="M1393.66,-216.94C1342.29,-206.55 1275.16,-192.97 1221.11,-182.03"/>
<polygon fill="black" stroke="black" points="1221.68,-178.58 1211.18,-180.02 1220.29,-185.44 1221.68,-178.58"/>
</g>
<!-- [root] provider[&quot;registry.terraform.io/hashicorp/random&quot;] (close)&#45;&gt;[root] random_shuffle.random_verbs (expand) -->
<g id="edge20" class="edge">
<title>[root] provider[&quot;registry.terraform.io/hashicorp/random&quot;] (close)&#45;&gt;[root] random_shuffle.random_verbs (expand)</title>
<path fill="none" stroke="black" d="M1441.57,-216.05C1424.14,-206.67 1402.27,-194.89 1383.56,-184.82"/>
<polygon fill="black" stroke="black" points="1385.13,-181.69 1374.67,-180.03 1381.82,-187.85 1385.13,-181.69"/>
</g>
<!-- [root] root -->
<g id="node20" class="node">
<title>[root] root</title>
<ellipse fill="none" stroke="black" cx="1340.04" cy="-450" rx="49.29" ry="18"/>
<text text-anchor="middle" x="1340.04" y="-446.3" font-family="Times New Roman,serif" font-size="14.00">[root] root</text>
</g>
<!-- [root] root&#45;&gt;[root] meta.count&#45;boundary (EachMode fixup) -->
<g id="edge36" class="edge">
<title>[root] root&#45;&gt;[root] meta.count&#45;boundary (EachMode fixup)</title>
<path fill="none" stroke="black" d="M1317.47,-433.81C1303.46,-424.38 1285.2,-412.09 1269.52,-401.53"/>
<polygon fill="black" stroke="black" points="1271.36,-398.56 1261.11,-395.88 1267.46,-404.36 1271.36,-398.56"/>
</g>
<!-- [root] root&#45;&gt;[root] provider[&quot;registry.terraform.io/hashicorp/archive&quot;] (close) -->
<g id="edge37" class="edge">
<title>[root] root&#45;&gt;[root] provider[&quot;registry.terraform.io/hashicorp/archive&quot;] (close)</title>
<path fill="none" stroke="black" d="M1294.34,-443.15C1212.68,-432.7 1039.02,-410.48 919.18,-395.14"/>
<polygon fill="black" stroke="black" points="919.57,-391.66 909.2,-393.87 918.68,-398.61 919.57,-391.66"/>
</g>
<!-- [root] root&#45;&gt;[root] provider[&quot;registry.terraform.io/hashicorp/local&quot;] (close) -->
<g id="edge38" class="edge">
<title>[root] root&#45;&gt;[root] provider[&quot;registry.terraform.io/hashicorp/local&quot;] (close)</title>
<path fill="none" stroke="black" d="M1374.83,-437.2C1393.6,-428.85 1415.1,-415.6 1426.04,-396 1433.84,-382.03 1436.32,-372.26 1426.04,-360 1409.3,-340.03 1360.91,-327.58 1307.81,-319.82"/>
<polygon fill="black" stroke="black" points="1308.23,-316.35 1297.84,-318.43 1307.26,-323.28 1308.23,-316.35"/>
</g>
<!-- [root] root&#45;&gt;[root] provider[&quot;registry.terraform.io/hashicorp/random&quot;] (close) -->
<g id="edge39" class="edge">
<title>[root] root&#45;&gt;[root] provider[&quot;registry.terraform.io/hashicorp/random&quot;] (close)</title>
<path fill="none" stroke="black" d="M1375.81,-437.52C1397.59,-428.99 1424.67,-415.44 1443.04,-396 1477.42,-359.61 1475.98,-338.05 1475.04,-288 1474.88,-279.68 1474.59,-270.63 1474.27,-262.4"/>
<polygon fill="black" stroke="black" points="1477.76,-262.03 1473.85,-252.18 1470.77,-262.32 1477.76,-262.03"/>
</g>
</g>
</svg>
